<?xml version="1.0" encoding="UTF-8"?>
<svg id="Camada_1" data-name="Camada 1" xmlns="http://www.w3.org/2000/svg" version="1.1" viewBox="0 0 344.1 107.94">
  <defs>
    <style>
      .cls-1 {
        fill: #d58616;
      }

      .cls-1, .cls-2 {
        stroke-width: 0px;
      }

      .cls-2 {
        fill: #5a9644;
      }
    </style>
  </defs>
  <g>
    <path class="cls-1" d="M56.42,65.95c-1,3.07-2.54,5.7-4.61,7.87-2.07,2.17-4.73,3.84-7.97,5.01-3.24,1.17-7.17,1.75-11.78,1.75s-8.15-.58-11.22-1.75c-3.07-1.17-5.61-2.84-7.62-5.01-2-2.17-3.51-4.79-4.51-7.87-1-3.07-1.57-6.55-1.7-10.42.13-3.87.7-7.38,1.7-10.52,1-3.14,2.51-5.83,4.51-8.07,2-2.24,4.54-3.97,7.62-5.21,3.07-1.24,6.81-1.85,11.22-1.85,3.01,0,5.66.35,7.97,1.05s4.42,1.52,6.36,2.45l.2-28.06h11.52v50.2c-.13,3.88-.7,7.35-1.7,10.42ZM45.59,45.36c-.67-2.3-1.62-4.17-2.86-5.61-1.24-1.44-2.72-2.47-4.46-3.11-1.74-.63-3.64-.92-5.71-.85-2.07-.07-3.98.2-5.71.8-1.74.6-3.22,1.62-4.46,3.06-1.24,1.44-2.19,3.32-2.86,5.66-.67,2.34-1,5.18-1,8.52v3.51c0,3.34.33,6.15,1,8.42.67,2.27,1.62,4.08,2.86,5.41,1.24,1.34,2.72,2.27,4.46,2.81,1.74.54,3.64.77,5.71.7,2.07.07,3.97-.18,5.71-.75,1.74-.57,3.22-1.52,4.46-2.86,1.24-1.34,2.19-3.12,2.86-5.36.67-2.24,1-5.03,1-8.37v-3.51c0-3.34-.34-6.16-1-8.47Z"/>
    <path class="cls-1" d="M77.66,58.74c.2,1.8.58,3.67,1.15,5.61.57,1.94,1.47,3.71,2.7,5.31,1.24,1.6,2.86,2.94,4.86,4.01,2,1.07,4.51,1.6,7.51,1.6,2.47,0,5.81-.57,10.02-1.7l.8,3.31c-2.07.94-4.18,1.8-6.31,2.61-2.14.8-4.38,1.14-6.71,1-3.54,0-6.8-.6-9.77-1.8-2.97-1.2-5.56-2.89-7.77-5.06-2.2-2.17-3.96-4.76-5.26-7.77-1.3-3.01-2.02-6.31-2.15-9.92,0-3.34.6-6.48,1.8-9.42,1.2-2.94,2.89-5.53,5.06-7.77,2.17-2.24,4.73-4.02,7.67-5.36,2.94-1.34,6.15-2.07,9.62-2.2,3.67.07,7.01.75,10.02,2.05,3.01,1.3,5.58,3.07,7.72,5.31,2.14,2.24,3.77,4.84,4.91,7.82,1.14,2.97,1.64,6.1,1.5,9.37,0,.33-.02.82-.05,1.45-.03.64-.05,1.15-.05,1.55h-37.28ZM85.22,38.25c-1.5.9-2.77,2.07-3.81,3.51-1.04,1.44-1.85,3.09-2.45,4.96-.6,1.87-1,3.81-1.2,5.81h26.25c-.54-5.48-1.97-9.45-4.31-11.92-2.34-2.47-5.35-3.71-9.02-3.71h-.2c-2,0-3.76.45-5.26,1.35Z"/>
    <path class="cls-1" d="M143.14,39.4c-1.97.87-3.69,2.12-5.16,3.76-1.47,1.64-2.56,3.76-3.26,6.36-.7,2.61-.82,5.78-.35,9.52.27,2.27,1.28,4.63,3.06,7.06,1.77,2.44,4.17,4.51,7.22,6.21,3.04,1.7,6.7,2.77,10.97,3.21,4.27.44,9.08-.25,14.43-2.05l.2,3.21c-1.4.6-2.74,1.19-4.01,1.75-1.27.57-2.71,1.09-4.31,1.55-1.6.47-3.49.85-5.66,1.15-2.17.3-4.83.48-7.97.55-3.61.07-6.91-.52-9.92-1.75-3.01-1.24-5.61-2.96-7.82-5.16-2.2-2.2-3.91-4.84-5.11-7.92-1.2-3.07-1.8-6.41-1.8-10.02,0-4.27.85-8.18,2.56-11.72,1.7-3.54,4.06-6.46,7.06-8.77,3.01-2.3,6.55-3.89,10.62-4.76,4.07-.87,8.52-.73,13.33.4,3.74,1.2,6.58,2.71,8.52,4.51,1.94,1.8,3.27,3.47,4.01,5.01.13.27.22.39.25.35.03-.03-.17.03-.6.2-.44.17-1.14.57-2.11,1.2-.97.64-2.39,1.75-4.26,3.36-.94-1.54-1.8-2.87-2.61-4.01-.8-1.14-1.7-2.07-2.7-2.81-1-.73-2.17-1.27-3.51-1.6-1.34-.33-2.97-.5-4.91-.5-2.14.27-4.19.84-6.16,1.7Z"/>
    <path class="cls-1" d="M179.92,7.73c1.44-1.47,3.19-2.2,5.26-2.2s3.84.74,5.31,2.2c1.47,1.47,2.2,3.24,2.2,5.31,0,1-.22,1.95-.65,2.86-.44.9-1.02,1.7-1.75,2.4-.74.7-1.55,1.25-2.45,1.65-.9.4-1.79.6-2.66.6-2.07,0-3.83-.73-5.26-2.2-1.44-1.47-2.15-3.24-2.15-5.31s.72-3.84,2.15-5.31ZM191.19,80.49h-11.52V30.18h11.52v50.3Z"/>
    <path class="cls-1" d="M219.8,75.63c1.37-.37,2.59-.9,3.66-1.6,1.07-.7,1.9-1.55,2.51-2.56.6-1,.9-2.17.9-3.51,0-1.2-.32-2.25-.95-3.16-.64-.9-1.47-1.7-2.51-2.4-1.04-.7-2.22-1.32-3.56-1.85-1.34-.53-2.74-1.07-4.21-1.6-1.94-.67-3.84-1.4-5.71-2.2-1.87-.8-3.56-1.79-5.06-2.96-1.5-1.17-2.72-2.61-3.66-4.31-.94-1.7-1.4-3.79-1.4-6.26,0-2.07.5-3.94,1.5-5.61,1-1.67,2.36-3.09,4.06-4.26,1.7-1.17,3.66-2.05,5.86-2.66,2.2-.6,4.51-.9,6.91-.9,1.87,0,3.54.07,5.01.2,1.47.13,2.84.37,4.11.7,1.27.33,2.47.79,3.61,1.35,1.14.57,2.37,1.25,3.71,2.05.2,1.34.28,2.49.25,3.46-.03.97-.05,1.95-.05,2.96-.8-.6-1.65-1.2-2.56-1.8-.9-.6-1.95-1.17-3.16-1.7-1.2-.53-2.61-.98-4.21-1.35-1.6-.37-3.51-.65-5.71-.85-1.27,0-2.52.15-3.76.45-1.24.3-2.32.74-3.26,1.3-.94.57-1.7,1.27-2.3,2.1-.6.84-.9,1.82-.9,2.96,0,1.2.32,2.24.95,3.11.63.87,1.49,1.67,2.55,2.4,1.07.74,2.29,1.39,3.66,1.95,1.37.57,2.79,1.15,4.26,1.75,1.87.74,3.74,1.52,5.61,2.35,1.87.84,3.56,1.84,5.06,3.01,1.5,1.17,2.72,2.57,3.66,4.21.93,1.64,1.4,3.62,1.4,5.96,0,2.61-.59,4.86-1.75,6.76-1.17,1.9-2.69,3.46-4.56,4.66-1.87,1.2-3.98,2.09-6.31,2.66-2.34.57-4.64.85-6.91.85-2.54-.07-5.13-.27-7.77-.6-2.64-.33-5.33-.9-8.07-1.7l-.9-6.81c2.47,1.74,4.89,2.87,7.27,3.41,2.37.54,5.16.74,8.37.6,1.54,0,2.99-.18,4.36-.55Z"/>
    <path class="cls-1" d="M280.78,32.69c3.07,1.4,5.61,3.26,7.62,5.56,2,2.3,3.51,4.96,4.51,7.97,1,3.01,1.57,6.15,1.7,9.42-.13,3.41-.69,6.63-1.65,9.67-.97,3.04-2.46,5.68-4.46,7.92-2,2.24-4.56,4.03-7.67,5.36-3.11,1.34-6.86,2-11.27,2s-8.54-.67-11.77-2c-3.24-1.34-5.9-3.16-7.97-5.46-2.07-2.3-3.61-4.96-4.61-7.97-1-3.01-1.57-6.18-1.7-9.52.07-3.27.6-6.41,1.6-9.42,1-3.01,2.54-5.66,4.61-7.97,2.07-2.3,4.74-4.16,8.02-5.56,3.27-1.4,7.21-2.1,11.82-2.1s8.15.7,11.22,2.1ZM256.03,65.7c.67,2.24,1.62,4.03,2.86,5.36,1.24,1.34,2.72,2.29,4.46,2.86,1.74.57,3.64.82,5.71.75,2.07.07,3.97-.17,5.71-.7,1.74-.53,3.22-1.47,4.46-2.81,1.24-1.34,2.19-3.14,2.86-5.41.67-2.27,1-5.08,1-8.42v-3.51c0-3.34-.34-6.15-1-8.42-.67-2.27-1.62-4.07-2.86-5.41-1.24-1.34-2.72-2.27-4.46-2.81-1.74-.53-3.64-.77-5.71-.7-2.07-.07-3.98.18-5.71.75-1.74.57-3.22,1.52-4.46,2.86-1.24,1.34-2.19,3.12-2.86,5.36-.67,2.24-1,5.03-1,8.37v3.51c0,3.34.33,6.13,1,8.37Z"/>
    <path class="cls-1" d="M334.79,30.48c.8,0,1.57.03,2.3.1v5.21c-.8-.13-1.64-.22-2.5-.25-.87-.03-1.7-.05-2.51-.05-2.07-.07-4.14.18-6.21.75-2.07.57-3.94,1.52-5.61,2.86-1.67,1.34-3.02,3.12-4.06,5.36-1.04,2.24-1.55,5.03-1.55,8.37v27.76h-11.52v-23.75c0-8.15,2.52-14.58,7.57-19.29,5.04-4.71,12.34-7.06,21.9-7.06h2.2Z"/>
  </g>
  <path class="cls-2" d="M62.6,73.4s5.92,12.31,14.61,15.72c.46.18.95.31,1.44.4,2.54.47,4.33.57,6.66.61,2.22.03,4.65.68,6.51,2.75,1.2,1.16,3.4,6.77-2,9.03-.9.38-1.88.56-2.86.64-5.03.42-9.27-1.23-13.41-4.35-4.85-3.65-11.97-13.25-10.95-24.8Z"/>
</svg>